<svg id="Layer_1" enable-background="new 0 0 256 256" height="512" viewBox="0 0 256 256" width="512" xmlns="http://www.w3.org/2000/svg"><g><g><g><path d="m44.04 51.219v45.452c.019 0 .036-.003.055-.003v14.997c-.019 0-.036-.003-.055-.003v19.969h70.291v-80.412z" fill="#87796f"/></g></g><g><g><path d="m114.331 49.719h-70.291c-.829 0-1.5.671-1.5 1.5v45.452c0 .404.172.791.461 1.073.289.283.689.446 1.094.424v-1.497h1.445v-43.952h67.292v77.413h-67.292v-17.935c.066-.165.102-.343.102-.529 0-.829-.625-1.499-1.453-1.499-.869-.08-1.649.625-1.649 1.494v19.969c0 .829.671 1.5 1.5 1.5h70.292c.829 0 1.5-.671 1.5-1.5v-80.413c-.001-.829-.672-1.5-1.501-1.5z" fill="#3a312a"/></g></g><g><g><path d="m120.788 144.627v-10.047c0-10.36-8.4-18.76-18.77-18.76h-12.41v-8.06c-3.43 2.38-6.98 3.78-10.42 3.78-3.31 0-6.79-1.42-10.21-3.82h-.21v8.1h-12.41c-10.37 0-18.78 8.4-18.78 18.76v17.01h.024v32.737c0 4.302 3.487 7.789 7.789 7.789s7.789-3.488 7.789-7.789v-39.7h-.012v-9.697h52v16.66h.046v32.737c0 4.302 3.487 7.789 7.789 7.789s7.789-3.488 7.789-7.789v-39.7z" fill="#fae6ca"/></g></g><g><g><path d="m122.289 144.512v-9.932c0-11.171-9.093-20.26-20.27-20.26h-10.91v-6.561c0-.558-.31-1.07-.805-1.329-.496-.258-1.092-.222-1.55.097-3.359 2.331-6.577 3.513-9.565 3.513-2.849 0-5.994-1.194-9.348-3.548-.252-.177-.553-.272-.862-.272h-.21c-.829 0-1.5.671-1.5 1.5v6.6h-10.91c-11.182 0-20.28 9.088-20.28 20.26v17.01c0 .089.008.176.023.261v32.476c0 5.122 4.167 9.29 9.289 9.29s9.289-4.167 9.289-9.29v-39.7c0-.064-.004-.128-.012-.19v-8.007h25.773c.829 0 1.5-.671 1.5-1.5s-.671-1.5-1.5-1.5h-27.273c-.829 0-1.5.671-1.5 1.5v9.697c0 .064.004.128.012.19v39.51c0 3.468-2.821 6.29-6.289 6.29s-6.289-2.821-6.289-6.29v-32.737c0-.089-.008-.176-.023-.261v-16.749c0-9.517 7.751-17.26 17.28-17.26h12.41c.829 0 1.5-.671 1.5-1.5v-5.492c3.1 1.801 6.092 2.711 8.92 2.711 2.876 0 5.866-.864 8.92-2.571v5.352c0 .829.671 1.5 1.5 1.5h12.41c9.523 0 17.27 7.743 17.27 17.26v10.047c0 .039.001.077.004.115v39.585c0 3.468-2.821 6.29-6.29 6.29-3.468 0-6.289-2.821-6.289-6.29v-32.737c0-.124-.016-.244-.046-.358v-16.302c0-.829-.671-1.5-1.5-1.5h-10.253c-.829 0-1.5.671-1.5 1.5s.671 1.5 1.5 1.5h8.754v15.16c0 .124.016.244.046.358v32.379c0 5.122 4.167 9.29 9.289 9.29s9.29-4.167 9.29-9.29v-39.7c-.001-.039-.002-.077-.005-.115z" fill="#3a312a"/></g></g><g><g><path d="m205.193 26.102c-.974 11.564-13.031 13.39-13.031 13.39 10.352.487 12.932 14.059 12.932 14.059.221-9.677 13.328-14.202 13.328-14.202-9.819-.588-13.229-13.247-13.229-13.247z" fill="#d7e057"/></g></g><g><g><path d="m218.512 37.851c-8.61-.515-11.84-12.025-11.871-12.141-.191-.701-.851-1.17-1.584-1.101-.725.066-1.298.642-1.359 1.367-.859 10.215-11.319 11.963-11.761 12.033-.763.115-1.313.79-1.273 1.561.04.77.657 1.384 1.428 1.421 9.034.425 11.506 12.718 11.529 12.842.138.711.76 1.217 1.473 1.217.042 0 .084-.001.126-.005.765-.064 1.357-.693 1.375-1.459.193-8.508 12.198-12.777 12.319-12.819.675-.235 1.092-.914.994-1.623s-.682-1.25-1.396-1.293zm-13.574 10.347c-1.357-3.13-3.711-6.908-7.592-8.878 2.933-1.405 6.413-3.914 8.206-8.274 1.552 3.071 4.202 6.881 8.34 8.724-3.009 1.64-6.926 4.406-8.954 8.428z" fill="#3a312a"/></g></g><g><g><path d="m183.483 43.083c-.689 8.179-9.217 9.47-9.217 9.47 7.322.344 9.147 9.944 9.147 9.944.156-6.844 9.427-10.045 9.427-10.045-6.945-.415-9.357-9.369-9.357-9.369z" fill="#d7e057"/></g></g><g><g><path d="m192.93 50.955c-5.771-.345-7.978-8.186-8-8.265-.19-.702-.863-1.165-1.581-1.102-.726.065-1.3.643-1.361 1.368-.578 6.871-7.65 8.067-7.946 8.114-.763.115-1.314.79-1.273 1.561.04.77.657 1.384 1.428 1.421 6.039.284 7.729 8.644 7.744 8.726.136.712.759 1.22 1.473 1.22.041 0 .083-.001.125-.005.765-.063 1.358-.694 1.376-1.461.13-5.708 8.335-8.633 8.416-8.661.677-.234 1.094-.913.997-1.622-.1-.71-.684-1.251-1.398-1.294zm-9.59 6.795c-.924-1.886-2.341-3.948-4.45-5.281 1.857-1.042 3.699-2.63 4.873-4.917 1.058 1.874 2.656 3.956 4.945 5.225-1.851 1.101-3.991 2.741-5.368 4.973z" fill="#3a312a"/></g></g><g><g><path d="m183.483 16.425c-.689 8.179-9.217 9.471-9.217 9.471 7.322.344 9.147 9.944 9.147 9.944.156-6.844 9.427-10.045 9.427-10.045-6.945-.416-9.357-9.37-9.357-9.37z" fill="#d7e057"/></g></g><g><g><path d="m192.93 24.297c-5.771-.345-7.978-8.186-8-8.265-.19-.702-.863-1.164-1.581-1.102-.726.065-1.3.643-1.361 1.368-.578 6.871-7.65 8.066-7.946 8.113-.763.115-1.314.79-1.273 1.56.04.771.657 1.385 1.428 1.421 6.039.284 7.729 8.645 7.744 8.727.136.712.759 1.22 1.473 1.22.041 0 .083-.001.125-.005.765-.063 1.358-.694 1.376-1.461.13-5.709 8.335-8.633 8.416-8.662.677-.234 1.094-.913.997-1.622-.1-.707-.684-1.249-1.398-1.292zm-9.59 6.797c-.924-1.886-2.341-3.948-4.45-5.281 1.857-1.042 3.699-2.63 4.873-4.917 1.058 1.874 2.656 3.956 4.945 5.225-1.851 1.1-3.991 2.74-5.368 4.973z" fill="#3a312a"/></g></g><g><g><path d="m183.582 170.597h-18.999v2.472c0 16.408-13.301 29.71-29.71 29.71s-29.71-13.302-29.71-29.71v-38.143h-51.998v39.866c0 36.013 29.195 65.208 65.208 65.208 36.013 0 65.208-29.195 65.208-65.208z" fill="#f16c7a"/></g></g><g><g><path d="m183.582 169.097h-18.999c-.828 0-1.5.671-1.5 1.5v2.472c0 15.555-12.655 28.21-28.21 28.21s-28.209-12.655-28.209-28.21v-38.143c0-.829-.671-1.5-1.5-1.5h-10.249c-.829 0-1.5.671-1.5 1.5s.671 1.5 1.5 1.5h8.749v36.643c0 17.209 14 31.21 31.209 31.21s31.21-14 31.21-31.21v-.972h15.999v2.695c0 35.129-28.579 63.708-63.708 63.708s-63.708-28.579-63.708-63.708v-38.366h25.776c.829 0 1.5-.671 1.5-1.5s-.671-1.5-1.5-1.5h-27.277c-.829 0-1.5.671-1.5 1.5v39.866c0 36.783 29.925 66.708 66.708 66.708s66.708-29.925 66.708-66.708v-4.195c.001-.829-.671-1.5-1.499-1.5z" fill="#3a312a"/></g></g><g><g><path clip-rule="evenodd" d="m46.944 61.913c-4.08 0-7.388 3.306-7.388 7.384s3.308 7.384 7.388 7.384 7.388-3.306 7.388-7.384-3.307-7.384-7.388-7.384z" fill="#fae6ca" fill-rule="evenodd"/></g></g><g><g><path d="m46.944 60.413c-4.901 0-8.888 3.985-8.888 8.884 0 4.898 3.987 8.884 8.888 8.884s8.888-3.985 8.888-8.884-3.987-8.884-8.888-8.884zm0 14.768c-3.246 0-5.888-2.64-5.888-5.884 0-3.245 2.641-5.884 5.888-5.884s5.888 2.64 5.888 5.884c0 3.245-2.641 5.884-5.888 5.884z" fill="#3a312a"/></g></g><g><g><ellipse clip-rule="evenodd" cx="111.427" cy="69.297" fill="#fae6ca" fill-rule="evenodd" rx="7.384" ry="7.388" transform="matrix(.002 -1 1 .002 41.91 180.587)"/></g></g><g><g><path d="m111.427 60.413c-4.901 0-8.888 3.985-8.888 8.884 0 4.898 3.987 8.884 8.888 8.884s8.888-3.985 8.888-8.884-3.987-8.884-8.888-8.884zm0 14.768c-3.247 0-5.888-2.64-5.888-5.884 0-3.245 2.641-5.884 5.888-5.884s5.888 2.64 5.888 5.884c0 3.245-2.641 5.884-5.888 5.884z" fill="#3a312a"/></g></g><g><g><path d="m79.187 32.979c-18.088 0-32.751 14.656-32.751 32.734s18.117 45.828 32.751 45.828c15.331 0 32.751-27.749 32.751-45.828s-14.663-32.734-32.751-32.734z" fill="#fae6ca"/></g></g><g><g><path d="m79.187 31.479c-18.886 0-34.252 15.357-34.252 34.234 0 8.89 4.274 20.595 11.154 30.546 7.374 10.665 15.792 16.781 23.097 16.781 16.209 0 34.251-28.21 34.251-47.328.001-18.876-15.364-34.233-34.25-34.233zm0 78.562c-13.793 0-31.252-27.484-31.252-44.328 0-17.223 14.02-31.234 31.252-31.234s31.251 14.012 31.251 31.234c0 8.417-3.972 19.472-10.366 28.848-6.609 9.693-14.417 15.48-20.885 15.48z" fill="#3a312a"/></g></g><g><g><path d="m67.624 62.148c-1.766 0-3.197 1.431-3.197 3.195 0 1.765 1.431 3.195 3.197 3.195s3.197-1.43 3.197-3.195c0-1.764-1.432-3.195-3.197-3.195z" fill="#3a312a"/></g></g><g><g><path d="m90.75 62.148c-1.765 0-3.197 1.431-3.197 3.195 0 1.765 1.431 3.195 3.197 3.195s3.197-1.43 3.197-3.195c-.001-1.764-1.431-3.195-3.197-3.195z" fill="#3a312a"/></g></g><g><g><path d="m61.235 70.728c-3.041 0-5.507 1.842-5.507 4.115s2.466 4.115 5.507 4.115 5.507-1.842 5.507-4.115-2.466-4.115-5.507-4.115z" fill="#f59689"/></g></g><g><g><ellipse cx="97.139" cy="74.842" fill="#f59689" rx="5.507" ry="4.115"/></g></g><g><g><path d="m88.762 85.23c-.775-.29-1.64.103-1.931.878-.603 1.61-2.978 4.656-7.645 4.656-3.699 0-6.143-1.517-7.695-4.775-.356-.747-1.252-1.065-1.999-.709-.748.356-1.065 1.251-.71 2 2.049 4.303 5.55 6.485 10.404 6.485 5.483 0 9.263-3.423 10.455-6.604.29-.776-.103-1.64-.879-1.931z" fill="#3a312a"/></g></g><g><g><path d="m106.134 27.799c-6.881-7.266-16.62-11.799-27.416-11.799-4.038 0-7.925.634-11.567 1.813 2.885 6.687 6.295 13.108 10.939 18.698 2.135 2.563 4.501 4.928 7.004 7.123 2.039 1.813 4.174 3.524 6.343 5.167 7.393 5.61 15.372 10.572 23.761 14.614.825-3.095 1.262-6.346 1.262-9.7 0-10.04-3.922-19.161-10.326-25.916z" fill="#87796f"/></g></g><g><g><path d="m107.224 26.768c-7.492-7.911-17.616-12.268-28.506-12.268-4.117 0-8.164.634-12.029 1.886-.402.13-.731.424-.904.809-.174.385-.178.825-.011 1.213 3.445 7.986 6.992 14.043 11.164 19.063 2.06 2.474 4.472 4.927 7.16 7.284 1.881 1.672 3.985 3.387 6.433 5.241 7.662 5.814 15.742 10.784 24.017 14.771.206.099.428.149.651.149.213 0 .427-.045.626-.137.406-.187.708-.545.823-.977.871-3.266 1.313-6.659 1.313-10.086-.001-10.075-3.814-19.645-10.737-26.948zm6.952 34.474c-7.51-3.754-14.847-8.336-21.833-13.637-2.385-1.807-4.43-3.472-6.26-5.099-2.579-2.261-4.88-4.601-6.839-6.954-3.712-4.467-6.923-9.832-10.037-16.788 3.079-.84 6.27-1.265 9.51-1.265 10.058 0 19.408 4.024 26.328 11.332 6.393 6.744 9.914 15.581 9.914 24.884.001 2.545-.262 5.07-.783 7.527z" fill="#3a312a"/></g></g><g><g><path d="m78.718 16c-4.038 0-7.925.634-11.567 1.813-15.181 4.874-26.168 19.106-26.168 35.902 0 3.551.491 6.987 1.412 10.245 14.888-5.46 29.435-12.017 42.7-20.327 7.482-4.683 14.547-9.918 21.04-15.834-6.882-7.266-16.621-11.799-27.417-11.799z" fill="#87796f"/></g></g><g><g><path d="m107.224 26.768c-7.492-7.911-17.616-12.268-28.506-12.268-4.117 0-8.164.634-12.025 1.885-16.275 5.225-27.21 20.227-27.21 37.33 0 3.622.494 7.206 1.468 10.653.113.402.39.738.761.928.214.109.447.164.682.164.174 0 .349-.03.517-.092 16.737-6.138 30.795-12.832 42.979-20.463 7.838-4.906 14.989-10.288 21.254-15.997.298-.271.474-.651.489-1.054s-.133-.793-.409-1.086zm-22.926 15.595c-11.627 7.283-25.01 13.708-40.866 19.615-.63-2.693-.949-5.465-.949-8.263 0-15.795 10.098-29.649 25.13-34.475 3.566-1.155 7.303-1.74 11.105-1.74 9.543 0 18.449 3.623 25.246 10.235-5.851 5.202-12.46 10.118-19.666 14.628z" fill="#3a312a"/></g></g><g><g><path d="m37.602 144.627v39.7c0 4.302 3.487 7.789 7.789 7.789s7.789-3.488 7.789-7.789v-39.7z" fill="#d7e057"/></g></g><g><g><path d="m53.181 143.127h-15.579c-.829 0-1.5.671-1.5 1.5v39.7c0 5.122 4.167 9.289 9.289 9.289s9.289-4.167 9.289-9.289v-39.7c.001-.829-.671-1.5-1.499-1.5zm-1.5 41.2c0 3.468-2.821 6.289-6.289 6.289s-6.289-2.821-6.289-6.289v-38.2h12.579v38.2z" fill="#3a312a"/></g></g><g><g><path d="m105.214 144.627v39.7c0 4.302 3.487 7.789 7.789 7.789s7.789-3.488 7.789-7.789v-39.7z" fill="#d7e057"/></g></g><g><g><path d="m120.793 143.127h-15.579c-.829 0-1.5.671-1.5 1.5v39.7c0 5.122 4.167 9.289 9.289 9.289s9.29-4.167 9.29-9.289v-39.7c0-.829-.671-1.5-1.5-1.5zm-1.5 41.2c0 3.468-2.821 6.289-6.29 6.289-3.468 0-6.289-2.821-6.289-6.289v-38.2h12.579z" fill="#3a312a"/></g></g><g><g><path d="m212.792 118.218c-4.97-3.968-20.927 7.754-35.642 26.183-1.114 1.395-2.122 2.711-3.052 3.968-.93-1.257-1.938-2.573-3.052-3.968-14.714-18.429-30.672-30.151-35.642-26.183s2.93 22.125 17.644 40.553c10.401 13.026 16.57 16.622 21.05 16.213 4.48.409 10.649-3.187 21.05-16.213 14.714-18.429 22.614-36.585 17.644-40.553z" fill="#d7e057"/></g></g><g><g><path d="m213.727 117.045c-3.026-2.415-8.555-.807-15.99 4.656-6.836 5.021-14.562 12.75-21.759 21.763-.646.809-1.268 1.606-1.881 2.407-.605-.793-1.228-1.59-1.88-2.407-7.196-9.013-14.924-16.742-21.759-21.763-7.438-5.464-12.968-7.072-15.99-4.656-6.607 5.275 4.038 25.917 17.407 42.662 9.236 11.568 15.935 16.808 21.552 16.807.225 0 .449-.008.67-.025 5.764.436 12.617-4.752 22.222-16.782 13.37-16.744 24.015-37.386 17.408-42.662zm-19.751 40.79c-8.741 10.948-15.19 16.071-19.741 15.655-.092-.009-.182-.009-.273 0-4.525.415-10.998-4.706-19.741-15.655-15.926-19.947-21.147-35.835-17.88-38.445.354-.283.881-.447 1.589-.447 2.03 0 5.553 1.355 10.754 5.176 6.629 4.87 14.154 12.405 21.19 21.217 1.069 1.339 2.057 2.623 3.019 3.924.282.383.73.608 1.206.608s.923-.226 1.206-.607c.979-1.324 1.967-2.607 3.019-3.924 7.036-8.813 14.562-16.348 21.191-21.218 7.016-5.153 10.977-5.819 12.343-4.729 3.266 2.61-1.956 18.498-17.882 38.445z" fill="#3a312a"/></g></g><g><g><path d="m174.768 176.51c-.22 0-.45 0-.67-.02-2.16.16-4.47-.47-7.02-1.95v.25c0 32.58-24.59 59.53-56.18 63.27 2.45.29 4.95.44 7.48.44 35.12 0 63.7-28.58 63.7-63.71v-.85c-2.67 1.73-5.08 2.57-7.31 2.57z" fill="#d34e5c"/></g></g><g><g><path d="m211.858 119.39c-1.37-1.09-5.33-.42-12.35 4.73-.74.54-1.48 1.12-2.24 1.73-1.68 6.93-7.56 18.53-18.29 31.98-4.79 6-8.89 10.26-12.37 12.8 2.87 2.1 5.31 3.05 7.35 2.86.05 0 .09-.01.14-.01s.09.01.14.01c4.55.43 11-4.71 19.74-15.66 15.92-19.94 21.15-35.83 17.88-38.44z" fill="#b9c239"/></g></g></g></svg>